<svg width="515.9325195312499px" height="122.021240234375px" xmlns="http://www.w3.org/2000/svg" viewBox="-7.9662597656249545 13.9893798828125 515.9325195312499 122.021240234375" style="background: rgba(0, 0, 0, 0);" preserveAspectRatio="xMidYMid"><defs><filter id="editing-hole" x="-100%" y="-100%" width="300%" height="300%"><feFlood flood-color="#000" result="black"></feFlood><feMorphology operator="dilate" radius="2" in="SourceGraphic" result="erode"></feMorphology><feGaussianBlur in="erode" stdDeviation="4" result="blur"></feGaussianBlur><feOffset in="blur" dx="2" dy="2" result="offset"></feOffset><feComposite operator="atop" in="offset" in2="black" result="merge"></feComposite><feComposite operator="in" in="merge" in2="SourceGraphic" result="inner-shadow"></feComposite></filter></defs><g filter="url(#editing-hole)"><g transform="translate(67.98999512195587, 98.9921875)"><path d="M26.05-29.57L26.05-29.57L26.05-29.57Q27.01-31.49 27.01-33.28L27.01-33.28L27.01-33.28Q27.01-35.07 26.82-36.06L26.82-36.06L26.82-36.06Q26.62-37.06 26.18-37.82L26.18-37.82L26.18-37.82Q25.22-39.49 23.30-39.49L23.30-39.49L23.30-39.49Q20.93-39.49 19.01-37.76L19.01-37.76L19.01-37.76Q16.96-35.97 16.96-33.15L16.96-33.15L16.96-33.15Q16.96-31.36 18.21-29.98L18.21-29.98L18.21-29.98Q19.46-28.61 21.38-27.33L21.38-27.33L21.38-27.33Q23.30-26.05 25.47-24.77L25.47-24.77L25.47-24.77Q27.65-23.49 29.57-21.95L29.57-21.95L29.57-21.95Q33.98-18.43 33.98-13.70L33.98-13.70L33.98-13.70Q33.98-10.50 32.29-7.78L32.29-7.78L32.29-7.78Q30.59-5.06 27.78-3.07L27.78-3.07L27.78-3.07Q21.63 1.28 13.50 1.28L13.50 1.28L13.50 1.28Q6.91 1.28 3.52-0.86L3.52-0.86L3.52-0.86Q0.13-3.01 0.13-6.27L0.13-6.27L0.13-6.27Q0.13-12.10 4.67-13.57L4.67-13.57L4.67-13.57Q5.95-14.02 7.90-14.02L7.90-14.02L7.90-14.02Q9.86-14.02 12.10-13.18L12.10-13.18L12.10-13.18Q11.07-10.56 11.07-8.19L11.07-8.19L11.07-8.19Q11.07-3.07 14.72-3.07L14.72-3.07L14.72-3.07Q17.09-3.07 19.04-4.80L19.04-4.80L19.04-4.80Q20.99-6.53 20.99-8.48L20.99-8.48L20.99-8.48Q20.99-10.43 19.74-11.84L19.74-11.84L19.74-11.84Q18.50-13.25 16.64-14.37L16.64-14.37L16.64-14.37Q14.78-15.49 12.64-16.58L12.64-16.58L12.64-16.58Q10.50-17.66 8.64-19.20L8.64-19.20L8.64-19.20Q4.29-22.72 4.29-28.35L4.29-28.35L4.29-28.35Q4.29-32 6.08-34.85L6.08-34.85L6.08-34.85Q7.87-37.70 10.75-39.62L10.75-39.62L10.75-39.62Q16.51-43.52 23.58-43.52L23.58-43.52L23.58-43.52Q30.66-43.52 34.08-41.41L34.08-41.41L34.08-41.41Q37.50-39.30 37.50-35.71L37.50-35.71L37.50-35.71Q37.50-32.58 35.07-30.59L35.07-30.59L35.07-30.59Q32.96-28.93 30.40-28.93L30.40-28.93L30.40-28.93Q27.84-28.93 26.05-29.57ZM54.21-3.52L54.21-3.52L54.21-3.52Q52.22 1.28 45.89 1.28L45.89 1.28L45.89 1.28Q42.62 1.28 40.58-0.96L40.58-0.96L40.58-0.96Q38.85-2.94 38.85-4.93L38.85-4.93L38.85-4.93Q38.85-10.11 41.22-20.22L41.22-20.22L43.58-32.64L56.58-33.92L52.67-13.70L52.67-13.70Q51.58-8.96 51.58-7.30L51.58-7.30L51.58-7.30Q51.58-3.65 54.21-3.52ZM44.74-41.54L44.74-41.54L44.74-41.54Q44.74-44.03 46.82-45.38L46.82-45.38L46.82-45.38Q48.90-46.72 51.90-46.72L51.90-46.72L51.90-46.72Q54.91-46.72 56.74-45.38L56.74-45.38L56.74-45.38Q58.56-44.03 58.56-41.54L58.56-41.54L58.56-41.54Q58.56-39.04 56.54-37.76L56.54-37.76L56.54-37.76Q54.53-36.48 51.52-36.48L51.52-36.48L51.52-36.48Q48.51-36.48 46.62-37.76L46.62-37.76L46.62-37.76Q44.74-39.04 44.74-41.54ZM60.67-6.40L60.67-6.40L60.67-6.40Q60.67-8.13 61.57-12.48L61.57-12.48L64.96-29.76L61.18-29.76L61.44-31.68L61.44-31.68Q69.12-33.98 76.54-39.62L76.54-39.62L79.62-39.62L78.08-32.64L83.07-32.64L82.50-29.76L77.57-29.76L74.30-12.48L74.30-12.48Q73.47-8.51 73.47-7.17L73.47-7.17L73.47-7.17Q73.47-4.10 76.16-3.46L76.16-3.46L76.16-3.46Q75.52-1.28 73.22 0L73.22 0L73.22 0Q70.91 1.28 67.65 1.28L67.65 1.28L67.65 1.28Q64.38 1.28 62.53-0.77L62.53-0.77L62.53-0.77Q60.67-2.82 60.67-6.40ZM108.42-10.82L108.42-10.82L108.42-10.82Q110.02-9.73 110.02-7.33L110.02-7.33L110.02-7.33Q110.02-4.93 108.80-3.39L108.80-3.39L108.80-3.39Q107.58-1.86 105.60-0.83L105.60-0.83L105.60-0.83Q101.50 1.28 97.09 1.28L97.09 1.28L97.09 1.28Q92.67 1.28 90.08 0.32L90.08 0.32L90.08 0.32Q87.49-0.64 85.76-2.43L85.76-2.43L85.76-2.43Q82.37-5.82 82.37-12.03L82.37-12.03L82.37-12.03Q82.37-21.70 87.62-27.58L87.62-27.58L87.62-27.58Q93.25-33.92 103.04-33.92L103.04-33.92L103.04-33.92Q109.12-33.92 112.13-31.36L112.13-31.36L112.13-31.36Q114.37-29.44 114.37-26.30L114.37-26.30L114.37-26.30Q114.37-15.04 94.91-15.04L94.91-15.04L94.91-15.04Q94.66-13.38 94.66-11.97L94.66-11.97L94.66-11.97Q94.66-9.02 95.97-7.90L95.97-7.90L95.97-7.90Q97.28-6.78 99.71-6.78L99.71-6.78L99.71-6.78Q102.14-6.78 104.74-7.90L104.74-7.90L104.74-7.90Q107.33-9.02 108.42-10.82ZM95.36-17.79L95.36-17.79L95.36-17.79Q99.90-17.79 102.53-20.61L102.53-20.61L102.53-20.61Q105.15-23.30 105.15-27.58L105.15-27.58L105.15-27.58Q105.15-29.06 104.61-29.86L104.61-29.86L104.61-29.86Q104.06-30.66 102.98-30.66L102.98-30.66L102.98-30.66Q101.89-30.66 100.96-30.24L100.96-30.24L100.96-30.24Q100.03-29.82 99.07-28.42L99.07-28.42L99.07-28.42Q96.70-25.22 95.36-17.79ZM156.48-9.86L156.48-9.86L156.48-9.86Q157.70-8.32 157.70-5.34L157.70-5.34L157.70-5.34Q157.70-2.37 155.42-0.54L155.42-0.54L155.42-0.54Q153.15 1.28 149.18 1.28L149.18 1.28L149.18 1.28Q146.88 1.28 143.30 0.77L143.30 0.77L143.30 0.77Q136.26-0.32 134.24-0.32L134.24-0.32L134.24-0.32Q132.22-0.32 131.39-0.22L131.39-0.22L131.39-0.22Q130.56-0.13 129.22 0L129.22 0L136.96-42.24L150.98-42.24L144.58-7.04L144.58-7.04Q145.41-6.91 146.18-6.91L146.18-6.91L147.78-6.91L147.78-6.91Q153.15-6.91 156.48-9.86ZM177.34-3.52L177.34-3.52L177.34-3.52Q175.36 1.28 169.02 1.28L169.02 1.28L169.02 1.28Q165.76 1.28 163.71-0.96L163.71-0.96L163.71-0.96Q161.98-2.94 161.98-4.93L161.98-4.93L161.98-4.93Q161.98-10.11 164.35-20.22L164.35-20.22L166.72-32.64L179.71-33.92L175.81-13.70L175.81-13.70Q174.72-8.96 174.72-7.30L174.72-7.30L174.72-7.30Q174.72-3.65 177.34-3.52ZM167.87-41.54L167.87-41.54L167.87-41.54Q167.87-44.03 169.95-45.38L169.95-45.38L169.95-45.38Q172.03-46.72 175.04-46.72L175.04-46.72L175.04-46.72Q178.05-46.72 179.87-45.38L179.87-45.38L179.87-45.38Q181.70-44.03 181.70-41.54L181.70-41.54L181.70-41.54Q181.70-39.04 179.68-37.76L179.68-37.76L179.68-37.76Q177.66-36.48 174.66-36.48L174.66-36.48L174.66-36.48Q171.65-36.48 169.76-37.76L169.76-37.76L169.76-37.76Q167.87-39.04 167.87-41.54ZM214.21-26.62L214.21-26.62L214.21-26.62Q214.21-23.94 211.97-22.27L211.97-22.27L211.97-22.27Q209.73-20.61 206.08-20.61L206.08-20.61L206.08-20.61Q204.54-20.61 203.65-21.06L203.65-21.06L203.65-21.06Q204.35-22.72 204.58-24.80L204.58-24.80L204.58-24.80Q204.80-26.88 204.80-27.46L204.80-27.46L204.80-27.46Q204.80-30.14 202.94-30.14L202.94-30.14L202.94-30.14Q201.66-30.14 200.22-28.54L200.22-28.54L200.22-28.54Q198.78-26.94 197.57-24.45L197.57-24.45L197.57-24.45Q194.88-18.69 194.88-12.86L194.88-12.86L194.88-12.86Q194.88-9.66 196.10-8.22L196.10-8.22L196.10-8.22Q197.31-6.78 200.00-6.78L200.00-6.78L200.00-6.78Q203.71-6.78 206.66-9.86L206.66-9.86L206.66-9.86Q207.49-10.82 207.94-11.90L207.94-11.90L207.94-11.90Q210.37-10.62 210.37-7.10L210.37-7.10L210.37-7.10Q210.37-3.52 206.40-1.15L206.40-1.15L206.40-1.15Q202.30 1.28 195.78 1.28L195.78 1.28L195.78 1.28Q182.78 1.28 182.78-12.48L182.78-12.48L182.78-12.48Q182.78-22.53 188.48-28.29L188.48-28.29L188.48-28.29Q193.98-33.92 204.10-33.92L204.10-33.92L204.10-33.92Q214.21-33.92 214.21-26.62ZM231.30-3.52L231.30-3.52L231.30-3.52Q229.31 1.28 222.98 1.28L222.98 1.28L222.98 1.28Q219.71 1.28 217.66-0.96L217.66-0.96L217.66-0.96Q215.94-2.94 215.94-4.93L215.94-4.93L215.94-4.93Q215.94-10.11 218.30-20.22L218.30-20.22L220.67-32.64L233.66-33.92L229.76-13.70L229.76-13.70Q228.67-8.96 228.67-7.30L228.67-7.30L228.67-7.30Q228.67-3.65 231.30-3.52ZM221.82-41.54L221.82-41.54L221.82-41.54Q221.82-44.03 223.90-45.38L223.90-45.38L223.90-45.38Q225.98-46.72 228.99-46.72L228.99-46.72L228.99-46.72Q232-46.72 233.82-45.38L233.82-45.38L233.82-45.38Q235.65-44.03 235.65-41.54L235.65-41.54L235.65-41.54Q235.65-39.04 233.63-37.76L233.63-37.76L233.63-37.76Q231.62-36.48 228.61-36.48L228.61-36.48L228.61-36.48Q225.60-36.48 223.71-37.76L223.71-37.76L223.71-37.76Q221.82-39.04 221.82-41.54ZM237.76-6.40L237.76-6.40L237.76-6.40Q237.76-8.13 238.66-12.48L238.66-12.48L242.05-29.76L238.27-29.76L238.53-31.68L238.53-31.68Q246.21-33.98 253.63-39.62L253.63-39.62L256.70-39.62L255.17-32.64L260.16-32.64L259.58-29.76L254.66-29.76L251.39-12.48L251.39-12.48Q250.56-8.51 250.56-7.17L250.56-7.17L250.56-7.17Q250.56-4.10 253.25-3.46L253.25-3.46L253.25-3.46Q252.61-1.28 250.30 0L250.30 0L250.30 0Q248.00 1.28 244.74 1.28L244.74 1.28L244.74 1.28Q241.47 1.28 239.62-0.77L239.62-0.77L239.62-0.77Q237.76-2.82 237.76-6.40ZM262.37-1.92L262.37-1.92L262.37-1.92Q260.86-3.58 260.19-6.21L260.19-6.21L260.19-6.21Q259.52-8.83 259.52-13.12L259.52-13.12L259.52-13.12Q259.52-17.41 260.99-21.31L260.99-21.31L260.99-21.31Q262.46-25.22 265.15-28.03L265.15-28.03L265.15-28.03Q270.66-33.92 279.74-33.92L279.74-33.92L279.74-33.92Q283.01-33.92 285.38-32.83L285.38-32.83L296.32-33.92L291.58-8.96L291.58-8.96Q291.39-8.19 291.39-6.78L291.39-6.78L291.39-6.78Q291.39-5.38 292.26-4.48L292.26-4.48L292.26-4.48Q293.12-3.58 294.40-3.46L294.40-3.46L294.40-3.46Q293.76-1.28 291.42 0L291.42 0L291.42 0Q289.09 1.28 286.46 1.28L286.46 1.28L286.46 1.28Q283.84 1.28 282.08 0.29L282.08 0.29L282.08 0.29Q280.32-0.70 279.81-2.37L279.81-2.37L279.81-2.37Q278.78-0.77 276.61 0.26L276.61 0.26L276.61 0.26Q274.43 1.28 271.52 1.28L271.52 1.28L271.52 1.28Q268.61 1.28 266.24 0.51L266.24 0.51L266.24 0.51Q263.87-0.26 262.37-1.92ZM275.87-27.90L275.87-27.90L275.87-27.90Q275.14-26.75 274.50-24.80L274.50-24.80L274.50-24.80Q273.86-22.85 272.80-17.63L272.80-17.63L272.80-17.63Q271.74-12.42 271.74-8.70L271.74-8.70L271.74-8.70Q271.74-4.99 272.32-3.90L272.32-3.90L272.32-3.90Q272.90-2.82 273.92-2.82L273.92-2.82L273.92-2.82Q275.97-2.82 277.47-4.77L277.47-4.77L277.47-4.77Q278.98-6.72 279.55-10.18L279.55-10.18L282.94-28.93L282.94-28.93Q281.60-30.08 280.03-30.08L280.03-30.08L280.03-30.08Q278.46-30.08 277.54-29.57L277.54-29.57L277.54-29.57Q276.61-29.06 275.87-27.90ZM300.80-6.40L300.80-6.40L300.80-6.40Q300.80-8.13 301.70-12.48L301.70-12.48L305.09-29.76L301.31-29.76L301.57-31.68L301.57-31.68Q309.25-33.98 316.67-39.62L316.67-39.62L319.74-39.62L318.21-32.64L323.20-32.64L322.62-29.76L317.70-29.76L314.43-12.48L314.43-12.48Q313.60-8.51 313.60-7.17L313.60-7.17L313.60-7.17Q313.60-4.10 316.29-3.46L316.29-3.46L316.29-3.46Q315.65-1.28 313.34 0L313.34 0L313.34 0Q311.04 1.28 307.78 1.28L307.78 1.28L307.78 1.28Q304.51 1.28 302.66-0.77L302.66-0.77L302.66-0.77Q300.80-2.82 300.80-6.40ZM338.24-3.52L338.24-3.52L338.24-3.52Q336.26 1.28 329.92 1.28L329.92 1.28L329.92 1.28Q326.66 1.28 324.61-0.96L324.61-0.96L324.61-0.96Q322.88-2.94 322.88-4.93L322.88-4.93L322.88-4.93Q322.88-10.11 325.25-20.22L325.25-20.22L327.62-32.64L340.61-33.92L336.70-13.70L336.70-13.70Q335.62-8.96 335.62-7.30L335.62-7.30L335.62-7.30Q335.62-3.65 338.24-3.52ZM328.77-41.54L328.77-41.54L328.77-41.54Q328.77-44.03 330.85-45.38L330.85-45.38L330.85-45.38Q332.93-46.72 335.94-46.72L335.94-46.72L335.94-46.72Q338.94-46.72 340.77-45.38L340.77-45.38L340.77-45.38Q342.59-44.03 342.59-41.54L342.59-41.54L342.59-41.54Q342.59-39.04 340.58-37.76L340.58-37.76L340.58-37.76Q338.56-36.48 335.55-36.48L335.55-36.48L335.55-36.48Q332.54-36.48 330.66-37.76L330.66-37.76L330.66-37.76Q328.77-39.04 328.77-41.54ZM359.04-3.52L359.04-3.52L359.04-3.52Q357.06 1.28 350.72 1.28L350.72 1.28L350.72 1.28Q347.46 1.28 345.41-0.96L345.41-0.96L345.41-0.96Q343.68-2.94 343.68-4.93L343.68-4.93L343.68-4.93Q343.68-10.11 346.05-20.22L346.05-20.22L348.42-32.64L361.41-33.92L357.50-13.70L357.50-13.70Q356.42-8.96 356.42-7.30L356.42-7.30L356.42-7.30Q356.42-3.65 359.04-3.52ZM349.57-41.54L349.57-41.54L349.57-41.54Q349.57-44.03 351.65-45.38L351.65-45.38L351.65-45.38Q353.73-46.72 356.74-46.72L356.74-46.72L356.74-46.72Q359.74-46.72 361.57-45.38L361.57-45.38L361.57-45.38Q363.39-44.03 363.39-41.54L363.39-41.54L363.39-41.54Q363.39-39.04 361.38-37.76L361.38-37.76L361.38-37.76Q359.36-36.48 356.35-36.48L356.35-36.48L356.35-36.48Q353.34-36.48 351.46-37.76L351.46-37.76L351.46-37.76Q349.57-39.04 349.57-41.54Z" fill="#ccc"></path></g></g><style>text {
  font-size: 64px;
  font-family: Arial Black;
  dominant-baseline: central;
  text-anchor: middle;
}</style></svg>